<?xml version="1.0" encoding="UTF-8" ?>
<!DOCTYPE svg PUBLIC "-//W3C//DTD SVG 1.1//EN" "http://www.w3.org/Graphics/SVG/1.1/DTD/svg11.dtd">
<svg width="863pt" height="531pt" viewBox="0 0 863 531" version="1.1" xmlns="http://www.w3.org/2000/svg">
<g id="#66cc33ff">
<path fill="#66cc33" opacity="1.00" d=" M 266.56 31.28 C 274.01 28.58 282.20 27.17 290.00 29.16 C 302.81 31.69 314.07 40.88 318.75 53.12 C 321.24 60.10 322.61 67.73 320.96 75.07 C 318.98 87.50 310.62 98.77 299.14 104.02 C 291.89 107.62 283.56 108.24 275.65 106.98 C 273.79 106.64 271.94 106.23 270.10 105.82 C 249.91 101.13 237.71 77.62 243.31 58.12 C 246.22 46.13 255.07 35.82 266.56 31.28 M 276.35 50.59 C 269.64 52.74 264.26 58.98 263.63 66.07 C 262.10 76.55 271.40 86.88 281.98 86.36 C 292.11 86.69 301.12 76.99 300.05 66.92 C 299.88 55.52 287.01 46.91 276.35 50.59 Z" />
</g>
<g id="#444d52ff">
<path fill="#444d52" opacity="1.00" d=" M 268.23 105.41 L 270.10 105.82 C 271.94 106.23 273.79 106.64 275.65 106.98 C 279.46 107.84 283.38 107.74 287.26 107.68 C 288.43 131.02 289.62 154.36 290.82 177.70 C 301.08 179.02 311.56 181.78 319.95 188.10 C 325.04 191.17 328.75 195.89 333.04 199.91 C 338.55 205.12 342.20 211.90 345.38 218.71 C 346.63 221.28 347.04 224.14 347.48 226.95 C 349.51 240.73 349.43 254.95 346.32 268.56 C 343.14 276.59 338.78 284.38 332.49 290.39 C 327.95 294.66 324.06 299.84 318.22 302.45 C 342.25 311.40 366.53 321.14 386.85 337.16 C 397.53 345.74 407.47 356.94 409.65 370.94 C 411.33 380.04 408.15 389.35 402.67 396.59 C 393.82 408.24 381.50 416.65 369.06 424.05 C 341.42 439.92 311.39 451.09 281.23 461.15 C 257.70 468.79 233.84 475.41 209.83 481.39 C 212.63 473.79 213.13 465.35 211.03 457.52 L 210.82 456.66 C 248.54 445.00 286.02 432.46 322.58 417.53 C 335.10 412.37 347.44 406.78 359.35 400.34 C 366.52 396.41 373.62 392.15 379.53 386.44 C 382.06 383.91 384.51 380.74 384.44 376.99 C 384.02 373.10 381.65 369.78 379.12 366.95 C 373.74 361.18 367.20 356.65 360.61 352.38 C 338.62 338.74 314.90 328.17 291.10 318.12 C 284.83 315.69 278.78 312.14 271.90 311.83 C 257.64 310.80 243.59 304.73 233.86 294.13 C 230.82 290.81 227.27 287.95 224.73 284.20 C 222.86 281.52 221.05 278.75 218.53 276.64 C 191.92 253.96 163.69 233.02 133.21 215.81 C 120.90 208.92 107.96 202.68 93.92 200.33 C 101.44 195.70 107.39 188.63 110.51 180.36 C 128.00 192.48 145.74 204.28 164.22 214.86 C 181.28 225.37 197.85 236.65 214.36 247.98 C 214.28 240.94 214.86 233.91 215.37 226.89 C 215.49 220.61 218.91 215.09 221.87 209.78 C 225.76 202.93 231.82 197.81 237.23 192.22 C 239.93 189.50 243.47 187.89 246.56 185.66 C 255.07 179.84 265.58 178.10 275.67 177.49 C 273.23 153.46 270.66 129.44 268.23 105.41 M 279.20 200.10 C 273.47 200.98 267.65 201.87 262.39 204.48 C 249.54 210.53 238.95 222.65 236.96 237.00 C 235.19 244.52 236.47 252.31 238.60 259.61 C 240.63 266.10 245.00 271.49 249.42 276.53 C 256.90 283.68 266.84 288.02 277.08 289.26 C 280.73 290.34 284.46 289.51 288.10 288.82 C 303.61 286.75 317.34 275.71 323.41 261.40 C 325.28 256.11 326.18 250.50 326.86 244.96 C 326.03 238.42 325.17 231.68 322.15 225.72 C 315.51 212.23 301.81 202.44 286.86 200.68 C 284.32 200.34 281.76 199.47 279.20 200.10 Z" />
<path fill="#444d52" opacity="1.00" d=" M 573.37 238.57 C 586.10 236.67 600.05 238.49 610.40 246.67 C 622.77 256.10 628.16 271.86 629.66 286.84 C 630.64 301.23 630.15 316.13 624.68 329.67 C 620.80 339.51 613.78 348.35 604.26 353.21 C 594.11 358.49 582.07 359.12 571.01 356.93 C 558.12 354.28 547.24 344.90 541.81 333.04 C 536.52 321.84 534.72 309.27 534.99 296.97 C 534.80 282.68 537.56 267.74 545.86 255.83 C 552.16 246.61 562.39 240.38 573.37 238.57 M 578.30 265.38 C 573.67 267.21 570.97 271.86 569.45 276.36 C 566.17 286.24 566.54 296.82 567.03 307.08 C 567.83 314.12 569.00 321.69 573.69 327.30 C 577.48 332.01 585.16 332.71 589.75 328.80 C 593.24 325.89 595.03 321.51 596.22 317.24 C 598.72 307.69 598.49 297.69 597.93 287.92 C 597.07 280.99 595.79 273.46 590.84 268.17 C 587.73 264.75 582.55 263.88 578.30 265.38 Z" />
<path fill="#444d52" opacity="1.00" d=" M 782.27 240.33 C 801.90 234.36 824.49 239.33 839.49 253.44 C 834.39 260.04 829.13 266.50 823.93 273.01 C 817.38 268.66 809.96 265.17 801.98 264.82 C 797.58 264.68 792.68 264.19 788.84 266.81 C 786.14 268.72 785.06 272.99 787.39 275.61 C 790.14 278.53 794.15 279.72 797.79 281.17 C 805.60 283.88 813.18 287.18 820.85 290.25 C 828.34 293.34 835.45 298.37 839.20 305.74 C 844.27 315.77 843.73 328.34 838.05 338.01 C 832.85 346.98 823.62 353.01 813.78 355.78 C 792.05 361.72 767.47 356.27 750.49 341.38 C 756.39 334.31 762.24 327.19 768.16 320.14 C 777.05 326.71 787.75 331.77 799.04 331.29 C 802.81 331.17 807.24 330.84 809.86 327.75 C 811.82 325.22 810.79 321.54 808.67 319.45 C 806.44 317.43 803.60 316.31 800.88 315.16 C 792.56 311.86 784.30 308.43 776.05 304.96 C 766.49 300.77 758.24 292.62 755.81 282.24 C 754.21 274.87 754.61 266.83 758.05 260.00 C 762.71 250.26 772.11 243.45 782.27 240.33 Z" />
<path fill="#444d52" opacity="1.00" d=" M 433.69 240.00 C 461.67 240.00 489.66 239.99 517.65 240.01 C 517.62 248.63 517.68 257.26 517.62 265.88 C 508.74 265.94 499.87 265.89 491.00 265.91 C 491.00 287.30 491.00 308.70 491.00 330.09 C 499.87 330.11 508.74 330.06 517.61 330.12 C 517.68 338.74 517.62 347.37 517.65 355.99 C 489.66 356.01 461.67 356.00 433.69 356.00 C 433.70 347.36 433.65 338.73 433.71 330.10 C 442.50 330.09 451.30 330.10 460.09 330.09 C 460.09 308.70 460.09 287.30 460.09 265.91 C 451.30 265.90 442.50 265.91 433.71 265.90 C 433.65 257.27 433.70 248.63 433.69 240.00 Z" />
<path fill="#444d52" opacity="1.00" d=" M 647.09 240.00 C 663.40 240.03 679.70 239.93 696.01 240.05 C 706.80 240.64 718.19 243.24 726.40 250.71 C 732.20 255.86 735.54 263.30 736.63 270.89 C 737.63 280.02 737.19 289.70 732.82 297.97 C 727.81 307.89 717.87 314.55 707.29 317.27 C 697.77 319.97 687.78 319.34 678.01 319.40 C 677.99 331.60 678.00 343.80 678.00 356.00 C 667.70 356.00 657.39 356.00 647.09 356.00 C 647.09 317.33 647.09 278.67 647.09 240.00 M 678.00 264.50 C 678.00 274.66 678.00 284.83 678.00 294.99 C 684.77 294.84 691.84 295.75 698.32 293.26 C 702.63 291.59 705.70 287.49 706.42 282.97 C 707.83 277.02 706.41 269.31 700.36 266.49 C 693.37 263.32 685.43 264.86 678.00 264.50 Z" />
<path fill="#444d52" opacity="1.00" d=" M 592.04 376.04 C 592.57 373.30 597.13 374.10 596.86 376.81 C 596.63 377.45 596.16 378.72 595.93 379.35 C 594.15 379.01 591.07 378.66 592.04 376.04 Z" />
<path fill="#444d52" opacity="1.00" d=" M 785.53 374.65 C 787.06 373.47 789.42 375.18 789.01 377.02 C 789.24 379.07 786.39 378.83 785.13 379.38 C 784.34 377.94 783.30 375.36 785.53 374.65 Z" />
<path fill="#444d52" opacity="1.00" d=" M 656.00 375.00 C 658.66 375.00 661.33 375.00 664.00 375.00 C 664.13 380.54 663.71 386.11 664.18 391.64 C 665.54 394.16 669.65 391.93 670.44 395.35 C 667.25 396.00 662.37 397.14 660.87 393.19 C 659.65 388.22 660.62 382.98 660.33 377.90 C 658.88 377.89 657.43 377.89 656.00 377.90 C 656.00 377.17 656.00 375.72 656.00 375.00 Z" />
<path fill="#444d52" opacity="1.00" d=" M 708.31 375.01 C 711.10 375.00 713.88 375.00 716.67 375.00 C 716.79 380.65 716.40 386.33 716.84 391.97 C 718.42 393.89 722.49 391.98 722.65 395.56 C 719.52 395.92 715.21 397.02 713.41 393.55 C 712.50 388.40 713.21 383.11 713.00 377.90 C 711.43 377.89 709.88 377.89 708.33 377.89 C 708.33 377.17 708.32 375.73 708.31 375.01 Z" />
<path fill="#444d52" opacity="1.00" d=" M 822.98 375.00 C 824.20 375.00 825.43 375.00 826.68 375.01 C 826.66 382.09 826.69 389.16 826.66 396.24 C 825.24 395.93 823.85 395.61 822.46 395.27 C 820.10 395.85 817.13 396.80 815.20 394.75 C 811.88 391.38 812.09 384.76 815.97 381.87 C 818.08 380.27 820.82 381.13 823.07 381.94 C 823.01 379.62 822.99 377.31 822.98 375.00 M 818.34 384.30 C 816.21 386.05 816.33 389.29 817.17 391.67 C 818.43 394.07 821.20 392.90 823.03 391.96 C 822.99 389.58 823.00 387.21 823.05 384.84 C 821.55 384.48 819.78 383.18 818.34 384.30 Z" />
<path fill="#444d52" opacity="1.00" d=" M 485.17 376.26 C 485.88 376.28 487.29 376.33 488.00 376.35 C 487.99 377.89 487.99 379.44 488.00 381.00 C 490.22 380.99 492.45 381.00 494.69 381.01 C 494.68 381.73 494.67 383.17 494.67 383.89 C 492.44 383.89 490.21 383.89 487.99 383.90 C 488.26 386.87 487.10 390.44 489.28 392.91 C 491.10 393.23 492.95 392.91 494.79 392.81 C 494.82 393.54 494.87 395.01 494.90 395.75 C 492.22 395.76 489.24 396.60 486.77 395.29 C 483.26 392.60 484.56 387.70 484.31 383.91 C 483.38 383.90 481.52 383.89 480.59 383.88 C 480.60 383.17 480.64 381.74 480.65 381.02 C 481.92 381.01 483.20 381.00 484.48 381.00 C 484.71 379.42 484.94 377.84 485.17 376.26 Z" />
<path fill="#444d52" opacity="1.00" d=" M 572.44 376.30 C 573.50 376.32 574.58 376.33 575.66 376.35 C 575.66 377.90 575.66 379.44 575.68 381.00 C 577.78 380.99 579.89 381.00 582.00 381.00 C 582.00 381.73 582.00 383.17 582.00 383.90 C 579.88 383.89 577.76 383.90 575.66 383.90 C 575.70 386.54 575.43 389.22 575.97 391.83 C 577.22 394.04 579.98 392.70 581.99 392.80 C 582.21 393.45 582.65 394.75 582.87 395.40 C 579.97 395.81 576.62 396.79 573.98 395.10 C 570.84 392.27 572.32 387.62 571.99 383.92 C 570.69 383.89 569.40 383.87 568.11 383.84 C 568.12 383.15 568.13 381.76 568.14 381.06 C 569.44 381.03 570.74 381.00 572.05 380.97 C 572.17 379.41 572.30 377.85 572.44 376.30 Z" />
<path fill="#444d52" opacity="1.00" d=" M 446.31 377.01 C 450.54 376.99 454.77 377.00 459.00 377.00 C 459.00 377.73 459.00 379.17 459.00 379.90 C 457.55 379.89 456.11 379.89 454.67 379.90 C 454.67 384.30 454.67 388.70 454.67 393.10 C 456.11 393.10 457.55 393.10 459.00 393.11 C 459.00 393.83 459.00 395.28 459.00 396.00 C 454.77 396.00 450.54 396.00 446.32 395.99 C 446.32 395.27 446.32 393.83 446.33 393.11 C 447.88 393.10 449.43 393.09 451.00 393.10 C 451.00 388.70 451.00 384.30 451.00 379.90 C 449.43 379.89 447.88 379.89 446.33 379.89 C 446.33 379.17 446.32 377.73 446.31 377.01 Z" />
<path fill="#444d52" opacity="1.00" d=" M 694.44 377.44 C 697.44 376.51 701.44 376.62 703.46 379.41 C 706.37 383.50 706.36 389.40 703.51 393.53 C 700.38 397.50 693.03 396.80 691.05 391.98 C 688.99 387.20 689.45 380.23 694.44 377.44 M 696.40 380.35 C 692.67 382.39 693.15 387.95 694.76 391.25 C 696.52 394.41 701.11 392.70 701.50 389.46 C 703.07 385.96 701.31 378.74 696.40 380.35 Z" />
<path fill="#444d52" opacity="1.00" d=" M 464.00 381.00 C 464.75 381.00 466.25 381.00 467.00 381.00 C 466.98 381.58 466.94 382.75 466.92 383.33 C 469.41 380.80 474.70 379.52 476.55 383.41 C 477.46 387.52 476.84 391.81 476.99 396.00 C 475.76 395.99 474.53 395.99 473.31 395.99 C 473.26 392.39 473.62 388.76 473.05 385.19 C 471.94 382.91 468.55 384.13 467.82 386.05 C 467.46 389.35 467.70 392.68 467.69 395.99 C 466.45 395.99 465.22 395.99 464.00 396.00 C 464.00 391.00 464.00 386.00 464.00 381.00 Z" />
<path fill="#444d52" opacity="1.00" d=" M 501.77 381.79 C 504.60 380.38 508.69 380.65 510.72 383.33 C 512.26 385.18 511.86 387.75 512.14 389.99 C 508.46 389.99 504.79 389.95 501.13 390.14 C 502.84 393.85 506.91 393.51 510.27 392.71 C 510.70 393.13 511.56 393.95 511.99 394.37 C 508.85 395.79 505.08 396.79 501.80 395.23 C 496.37 393.02 496.75 384.28 501.77 381.79 M 501.19 387.22 C 503.91 387.33 506.63 387.34 509.36 387.29 C 508.40 385.74 507.50 383.33 505.24 383.68 C 503.13 383.67 502.24 385.78 501.19 387.22 Z" />
<path fill="#444d52" opacity="1.00" d=" M 517.32 381.00 C 518.15 381.00 519.81 381.01 520.64 381.01 C 520.62 381.80 520.59 383.38 520.58 384.16 C 522.84 381.47 526.16 380.58 529.59 380.87 C 529.42 382.03 529.25 383.20 529.09 384.38 C 525.95 383.25 522.07 384.75 521.15 388.09 C 520.83 390.71 521.00 393.36 521.00 396.00 C 519.77 395.99 518.54 395.99 517.32 395.99 C 517.33 390.99 517.33 386.00 517.32 381.00 Z" />
<path fill="#444d52" opacity="1.00" d=" M 534.00 381.00 C 534.75 381.00 536.25 381.00 537.00 381.00 C 536.98 381.58 536.94 382.75 536.93 383.33 C 539.42 380.78 544.78 379.51 546.59 383.47 C 547.42 387.58 546.86 391.83 546.99 396.00 C 545.76 395.99 544.53 395.99 543.31 395.99 C 543.25 392.39 543.63 388.76 543.05 385.20 C 541.95 382.91 538.60 384.13 537.81 386.02 C 537.47 389.33 537.70 392.67 537.69 395.99 C 536.45 395.99 535.22 395.99 534.00 396.00 C 534.00 391.00 534.00 386.00 534.00 381.00 Z" />
<path fill="#444d52" opacity="1.00" d=" M 551.37 382.76 C 555.05 380.98 560.75 379.42 563.57 383.38 C 565.54 387.27 564.39 391.81 564.67 395.99 C 563.83 396.00 562.15 396.00 561.32 396.01 C 561.36 395.58 561.44 394.71 561.48 394.27 C 558.84 395.52 555.49 397.03 552.73 395.30 C 550.50 394.15 550.29 390.63 552.25 389.16 C 554.85 387.13 558.36 387.24 561.46 386.76 C 560.67 385.81 559.93 384.81 559.04 383.97 C 556.72 383.47 554.58 384.70 552.50 385.52 C 552.22 384.83 551.65 383.45 551.37 382.76 M 554.08 391.09 C 554.32 391.63 554.80 392.71 555.04 393.25 C 557.10 393.09 559.13 392.68 561.06 391.89 C 561.04 391.12 560.99 389.59 560.97 388.82 C 558.58 389.27 556.18 389.81 554.08 391.09 Z" />
<path fill="#444d52" opacity="1.00" d=" M 586.05 381.02 C 589.36 381.00 592.68 380.99 596.00 381.00 C 596.00 386.00 596.00 391.00 596.00 396.00 C 594.77 395.99 593.54 395.99 592.32 395.99 C 592.33 391.96 592.33 387.93 592.33 383.90 C 590.27 383.90 588.22 383.88 586.17 383.88 C 586.14 383.17 586.08 381.74 586.05 381.02 Z" />
<path fill="#444d52" opacity="1.00" d=" M 607.31 381.42 C 612.95 378.84 619.30 384.73 617.39 390.51 C 616.55 395.26 610.73 397.45 606.68 395.28 C 601.38 392.62 601.71 383.54 607.31 381.42 M 608.34 384.30 C 605.97 386.33 605.98 390.66 608.33 392.70 C 610.01 393.66 612.51 393.27 613.26 391.27 C 615.61 388.12 612.44 381.84 608.34 384.30 Z" />
<path fill="#444d52" opacity="1.00" d=" M 621.32 381.01 C 622.16 381.01 623.84 381.00 624.69 381.00 C 624.66 381.55 624.62 382.65 624.59 383.20 C 626.94 381.17 631.14 379.61 633.44 382.48 C 635.70 386.58 634.31 391.53 634.67 395.99 C 633.43 395.99 632.21 395.99 630.99 396.00 C 630.87 391.86 631.65 387.50 629.88 383.59 C 628.11 384.05 626.46 384.81 624.94 385.80 C 625.02 389.20 625.00 392.60 625.00 396.00 C 623.77 395.99 622.54 395.99 621.32 395.99 C 621.33 391.00 621.33 386.00 621.32 381.01 Z" />
<path fill="#444d52" opacity="1.00" d=" M 639.02 382.86 C 642.84 380.73 649.46 379.34 651.61 384.37 C 652.40 388.18 651.87 392.13 651.99 396.00 C 651.25 396.00 649.76 396.00 649.01 396.00 C 649.02 395.52 649.04 394.56 649.04 394.09 C 645.84 396.51 639.24 397.38 638.49 392.12 C 639.22 387.26 645.10 387.35 648.81 386.67 C 648.14 385.74 647.44 384.85 646.71 384.00 C 644.45 383.40 642.36 384.72 640.36 385.52 C 639.91 384.62 639.46 383.74 639.02 382.86 M 641.92 391.15 C 642.30 394.46 646.36 392.70 648.37 392.07 C 648.31 390.97 648.27 389.87 648.21 388.77 C 646.09 389.47 643.62 389.57 641.92 391.15 Z" />
<path fill="#444d52" opacity="1.00" d=" M 724.83 381.05 C 726.07 381.02 727.32 381.00 728.58 380.98 C 730.06 384.74 731.55 388.49 732.96 392.28 C 734.23 388.50 735.55 384.73 736.94 380.98 C 737.79 380.99 739.49 381.02 740.34 381.03 C 738.60 385.74 736.75 390.42 735.00 395.13 C 734.05 397.53 733.08 400.26 730.69 401.60 C 729.10 402.04 727.43 401.98 725.81 402.13 C 725.90 401.46 726.06 400.10 726.14 399.42 C 728.27 399.13 730.93 398.62 731.20 395.99 C 729.42 390.87 726.94 386.03 724.83 381.05 Z" />
<path fill="#444d52" opacity="1.00" d=" M 742.59 380.75 C 743.85 381.04 745.11 381.35 746.38 381.67 C 747.65 381.36 748.91 381.07 750.20 380.80 C 750.45 381.29 750.93 382.27 751.17 382.76 C 752.89 381.35 755.92 379.85 757.45 382.33 C 758.60 386.75 757.76 391.46 757.99 396.00 C 757.14 396.00 755.42 396.00 754.56 396.00 C 754.26 391.74 755.48 387.16 753.55 383.18 C 750.64 386.82 752.29 391.74 751.91 396.00 C 751.18 396.00 749.72 396.00 748.99 396.00 C 748.88 391.73 749.54 387.33 748.19 383.20 C 744.30 386.28 746.56 391.76 746.01 396.00 C 745.15 396.00 743.43 396.00 742.57 396.00 C 742.57 390.91 742.55 385.83 742.59 380.75 Z" />
<path fill="#444d52" opacity="1.00" d=" M 761.33 381.01 C 762.01 381.00 763.38 381.00 764.07 381.00 C 764.38 381.24 765.01 381.73 765.33 381.97 C 768.04 380.78 771.93 380.24 773.78 383.13 C 775.96 386.96 775.61 393.07 771.46 395.46 C 769.35 396.67 766.93 395.75 764.89 394.92 C 764.97 397.28 765.00 399.64 765.03 402.00 C 763.78 401.99 762.55 401.99 761.32 401.99 C 761.33 394.99 761.33 388.00 761.33 381.01 M 765.02 384.98 C 765.00 387.37 764.98 389.77 764.94 392.16 C 766.44 392.51 768.23 393.84 769.70 392.67 C 771.79 390.89 771.59 387.71 770.94 385.30 C 769.71 382.81 766.90 384.26 765.02 384.98 Z" />
<path fill="#444d52" opacity="1.00" d=" M 778.54 381.01 C 781.92 381.00 785.29 381.00 788.68 381.01 C 788.66 386.00 788.67 391.00 788.68 395.99 C 787.44 395.99 786.22 395.99 785.00 396.00 C 785.00 391.97 785.00 387.93 785.00 383.90 C 782.87 383.90 780.75 383.89 778.63 383.89 C 778.61 383.17 778.57 381.73 778.54 381.01 Z" />
<path fill="#444d52" opacity="1.00" d=" M 796.37 382.76 C 800.06 380.96 805.79 379.41 808.60 383.42 C 810.54 387.40 809.40 392.02 809.64 396.29 C 808.16 395.94 806.68 395.59 805.35 394.88 C 802.81 395.87 799.46 396.95 797.18 394.88 C 795.69 393.89 795.80 391.91 796.20 390.40 C 798.42 387.05 802.96 387.33 806.46 386.76 C 805.67 385.79 804.91 384.81 804.02 383.95 C 801.70 383.48 799.57 384.70 797.50 385.52 C 797.22 384.83 796.65 383.45 796.37 382.76 M 799.10 391.05 C 799.33 391.60 799.79 392.70 800.03 393.25 C 802.09 393.09 804.13 392.68 806.06 391.88 C 806.04 391.12 805.99 389.58 805.97 388.82 C 803.58 389.26 801.20 389.82 799.10 391.05 Z" />
<path fill="#444d52" opacity="1.00" d=" M 451.98 411.97 C 451.59 410.14 453.96 408.49 455.47 409.65 C 457.67 410.35 456.62 412.87 455.99 414.33 C 454.65 413.84 451.71 414.10 451.98 411.97 Z" />
<path fill="#444d52" opacity="1.00" d=" M 446.05 416.02 C 449.37 416.00 452.68 415.99 456.00 416.00 C 456.00 421.00 456.00 426.00 456.00 431.01 C 454.77 430.99 453.54 430.98 452.32 430.98 C 452.33 426.96 452.33 422.93 452.33 418.91 C 450.27 418.90 448.22 418.88 446.17 418.88 C 446.14 418.16 446.08 416.74 446.05 416.02 Z" />
<path fill="#444d52" opacity="1.00" d=" M 468.00 416.00 C 468.75 416.00 470.25 416.00 471.00 416.00 C 470.98 416.58 470.94 417.75 470.92 418.33 C 473.41 415.81 478.68 414.51 480.54 418.39 C 481.46 422.51 480.84 426.81 480.99 431.00 C 479.76 430.99 478.53 430.99 477.31 430.99 C 477.26 427.40 477.62 423.76 477.06 420.20 C 475.97 417.90 472.55 419.13 471.82 421.05 C 471.46 424.35 471.71 427.68 471.69 430.99 C 470.45 430.99 469.22 430.99 468.00 431.00 C 468.00 426.00 468.00 421.00 468.00 416.00 Z" />
</g>
<g id="#cc3333ff">
<path fill="#cc3333" opacity="1.00" d=" M 446.46 119.75 C 453.36 118.43 460.47 119.81 467.02 122.08 C 478.70 126.43 487.97 136.82 490.79 148.99 C 494.50 161.74 490.66 176.04 481.88 185.83 C 471.12 198.16 452.26 202.06 437.28 195.78 C 425.56 191.17 416.49 180.48 413.85 168.17 C 409.73 152.13 417.10 133.84 431.32 125.28 C 435.91 122.39 441.16 120.77 446.46 119.75 M 446.40 141.60 C 438.54 144.32 432.98 152.78 434.14 161.11 C 434.98 170.31 443.74 178.00 453.01 177.41 C 463.39 177.46 472.32 167.16 470.70 156.89 C 469.86 145.66 456.88 137.55 446.40 141.60 Z" />
</g>
<g id="#0099ccff">
<path fill="#0099cc" opacity="1.00" d=" M 41.49 142.44 C 48.79 132.08 61.58 126.45 74.07 126.37 C 83.07 126.97 92.23 129.76 99.12 135.79 C 111.82 146.27 116.53 165.06 110.51 180.36 C 107.39 188.63 101.44 195.70 93.92 200.33 C 87.93 203.91 80.93 205.55 74.01 205.98 C 60.92 205.99 47.59 199.66 40.46 188.46 C 31.12 174.90 31.57 155.58 41.49 142.44 M 69.21 148.18 C 60.88 150.15 54.35 158.40 55.02 167.05 C 55.18 176.74 64.28 185.17 73.95 184.56 C 80.28 184.55 86.21 180.75 89.36 175.36 C 93.35 168.75 92.45 159.51 87.08 153.92 C 82.64 149.13 75.64 146.58 69.21 148.18 Z" />
</g>
<g id="#fc9270ff">
<path fill="#fc9270" opacity="1.00" d=" M 355.12 222.83 C 370.07 230.52 385.28 238.01 398.74 248.19 C 401.25 250.55 405.22 252.94 404.87 256.86 C 402.41 260.59 398.10 262.42 394.25 264.35 C 379.61 271.04 364.13 275.60 348.74 280.16 C 354.72 267.37 359.45 253.33 357.99 239.01 C 357.56 233.54 356.40 228.16 355.12 222.83 Z" />
<path fill="#fc9270" opacity="1.00" d=" M 507.00 407.00 C 614.33 407.00 721.67 407.00 829.00 407.00 C 829.00 417.67 829.00 428.33 829.00 439.00 C 721.67 439.00 614.33 439.00 507.00 439.00 C 507.00 428.33 507.00 417.67 507.00 407.00 M 776.38 409.55 C 773.20 411.39 777.03 416.05 779.74 413.86 C 783.18 412.04 779.09 407.09 776.38 409.55 M 575.69 410.00 C 575.69 417.11 575.65 424.22 575.71 431.33 C 577.15 431.04 578.59 430.66 579.86 429.89 C 581.65 430.39 583.59 431.49 585.44 430.49 C 590.00 428.18 590.39 421.34 587.51 417.55 C 585.46 415.37 582.37 416.17 579.94 417.10 C 579.98 414.73 580.00 412.36 580.02 410.00 C 578.57 410.00 577.12 410.00 575.69 410.00 M 596.68 410.00 C 596.68 410.83 596.70 412.47 596.70 413.30 C 598.13 413.30 599.56 413.31 601.00 413.32 C 601.23 418.27 600.38 423.37 601.57 428.23 C 603.24 431.83 607.71 430.85 610.86 430.50 C 610.65 429.77 610.24 428.31 610.03 427.57 C 608.51 427.44 606.78 427.85 605.53 426.76 C 604.99 421.19 605.46 415.58 605.31 410.00 C 602.43 410.00 599.55 410.00 596.68 410.00 M 726.28 410.14 C 726.38 411.20 726.49 412.26 726.60 413.32 C 727.95 413.31 729.32 413.31 730.70 413.31 C 730.87 418.17 730.12 423.15 731.23 427.94 C 732.75 431.91 737.63 430.93 740.91 430.35 C 740.93 426.13 734.97 429.00 735.06 425.18 C 734.82 420.12 735.09 415.05 735.00 409.98 C 732.08 409.97 729.18 410.01 726.28 410.14 M 511.00 411.99 C 511.00 418.32 511.00 424.66 511.00 431.00 C 512.43 430.99 513.87 430.99 515.31 431.00 C 515.30 428.83 515.31 426.66 515.31 424.50 C 517.65 424.22 520.12 424.24 522.32 423.26 C 526.22 421.30 526.36 414.65 522.22 412.85 C 518.65 411.54 514.73 412.09 511.00 411.99 M 684.65 420.36 C 687.10 422.78 690.66 423.54 693.63 425.17 C 691.84 428.61 687.90 426.85 685.28 425.60 C 684.45 426.51 683.61 427.43 682.80 428.36 C 685.72 430.41 689.38 431.79 692.94 430.63 C 696.30 429.82 698.64 425.51 696.47 422.50 C 694.15 420.11 690.68 419.39 687.77 417.96 C 688.06 417.36 688.63 416.15 688.92 415.54 C 690.92 415.93 692.92 416.35 694.91 416.83 C 695.55 415.98 696.21 415.12 696.88 414.28 C 694.24 412.73 691.17 411.19 688.07 412.32 C 684.71 413.11 682.25 417.39 684.65 420.36 M 534.01 415.79 C 533.99 420.86 534.00 425.93 534.00 431.00 C 535.43 430.99 536.86 430.99 538.31 431.00 C 538.36 428.20 537.98 425.34 538.65 422.61 C 539.83 419.72 543.18 419.76 545.81 419.74 C 546.02 418.87 546.45 417.12 546.66 416.25 C 543.42 415.65 540.20 416.37 537.94 418.88 C 538.15 416.16 536.25 415.69 534.01 415.79 M 558.32 416.48 C 552.17 418.45 552.18 428.57 558.33 430.53 C 563.21 432.53 568.80 428.18 568.02 422.96 C 568.14 418.09 562.75 414.69 558.32 416.48 M 619.20 420.19 C 617.81 423.33 618.07 427.83 621.27 429.78 C 624.64 431.92 628.83 430.78 632.21 429.28 C 629.87 425.21 624.11 429.73 621.94 425.16 C 625.59 424.97 629.25 424.99 632.91 424.89 C 632.61 422.55 632.84 419.83 631.06 418.00 C 627.71 414.52 621.14 415.82 619.20 420.19 M 640.00 416.00 C 640.00 421.00 639.99 426.00 640.00 431.00 C 641.33 430.99 642.67 430.99 644.01 431.00 C 644.42 427.14 642.71 422.49 645.47 419.27 C 645.78 423.17 645.69 427.09 645.69 431.00 C 646.52 431.00 648.18 431.00 649.01 431.00 C 649.53 427.12 647.44 422.09 650.81 419.19 C 651.07 423.12 651.01 427.06 651.00 431.00 C 652.32 430.99 653.65 430.99 654.99 431.00 C 654.78 426.52 655.66 421.84 654.34 417.50 C 653.13 414.92 650.18 416.39 648.47 417.51 C 648.09 417.02 647.32 416.06 646.93 415.57 C 645.65 416.28 644.40 417.02 643.14 417.75 C 643.18 417.31 643.26 416.43 643.30 416.00 C 642.47 416.00 640.83 416.00 640.00 416.00 M 709.33 416.48 C 703.45 418.36 703.10 427.79 708.68 430.26 C 713.15 432.57 719.17 429.20 719.02 424.04 C 719.80 418.81 714.20 414.47 709.33 416.48 M 746.96 415.96 C 748.77 420.95 750.62 425.92 752.37 430.94 C 754.09 430.94 755.82 430.94 757.55 430.94 C 759.19 425.92 761.03 420.97 762.76 415.98 C 761.33 416.00 759.91 416.02 758.51 416.05 C 757.38 419.87 756.21 423.68 754.89 427.45 C 753.77 423.67 752.64 419.91 751.52 416.14 C 749.99 416.07 748.47 416.01 746.96 415.96 M 770.21 416.02 C 770.22 416.84 770.22 418.48 770.23 419.30 C 772.14 419.30 774.06 419.31 775.99 419.32 C 775.99 423.21 776.00 427.10 776.00 431.00 C 777.43 430.99 778.86 430.99 780.31 431.00 C 780.32 426.00 780.31 421.00 780.31 416.00 C 776.94 415.99 773.57 416.00 770.21 416.02 M 791.71 415.72 C 791.66 420.81 791.68 425.90 791.69 431.00 C 793.12 430.99 794.55 430.99 796.00 431.00 C 796.01 427.59 796.00 424.17 795.93 420.76 C 797.38 420.46 799.23 418.88 800.49 420.41 C 801.52 423.81 800.85 427.49 800.99 431.00 C 802.42 430.99 803.85 430.99 805.30 431.00 C 805.10 426.58 806.09 421.83 804.25 417.67 C 802.21 414.85 798.43 416.18 795.97 417.64 C 795.08 416.05 793.29 415.98 791.71 415.72 M 815.08 417.08 C 812.15 419.02 812.85 423.00 814.50 425.56 C 814.10 425.95 813.30 426.72 812.90 427.11 C 813.24 428.24 813.60 429.38 813.96 430.52 C 813.47 431.17 812.47 432.47 811.98 433.12 C 814.01 437.92 820.14 437.53 824.30 436.21 C 826.97 435.43 829.10 432.14 827.42 429.55 C 824.15 426.83 819.37 429.01 815.78 426.97 C 818.28 426.39 821.09 426.68 823.37 425.32 C 825.28 423.93 824.73 421.32 824.93 419.29 C 825.52 419.29 826.71 419.29 827.30 419.29 C 827.31 418.47 827.32 416.83 827.32 416.01 C 823.27 416.23 818.82 415.17 815.08 417.08 Z" />
<path fill="#fc9270" opacity="1.00" d=" M 515.34 415.09 C 517.35 415.46 521.09 415.07 521.03 418.02 C 521.15 421.11 517.43 420.89 515.31 421.21 C 515.31 419.17 515.32 417.13 515.34 415.09 Z" />
<path fill="#fc9270" opacity="1.00" d=" M 579.97 427.31 C 580.38 424.56 578.53 419.06 582.94 419.30 C 585.98 420.42 585.69 426.01 583.08 427.51 C 582.30 427.46 580.75 427.36 579.97 427.31 Z" />
<path fill="#fc9270" opacity="1.00" d=" M 622.45 421.88 C 623.48 420.85 624.29 419.15 626.02 419.31 C 627.73 418.98 628.49 420.95 629.54 421.88 C 627.17 421.97 624.80 421.97 622.45 421.88 Z" />
<path fill="#fc9270" opacity="1.00" d=" M 559.10 419.86 C 563.82 417.25 565.35 425.34 562.07 427.52 C 557.69 428.78 556.94 422.37 559.10 419.86 Z" />
<path fill="#fc9270" opacity="1.00" d=" M 710.16 419.90 C 715.60 416.57 716.72 428.81 711.03 427.62 C 708.35 426.20 708.39 422.03 710.16 419.90 Z" />
<path fill="#fc9270" opacity="1.00" d=" M 815.97 432.05 C 818.32 430.49 822.56 430.76 824.77 432.87 C 822.24 433.96 816.81 435.81 815.97 432.05 Z" />
</g>
<g id="#ffff33ff">
<path fill="#ffff33" opacity="1.00" d=" M 59.23 317.14 C 66.69 315.43 74.46 316.96 81.54 319.53 C 92.79 323.99 101.66 334.10 104.56 345.86 C 108.16 358.33 104.79 372.55 96.32 382.33 C 88.69 391.42 76.69 396.09 64.99 396.03 C 57.11 395.33 49.07 393.20 42.71 388.29 C 33.44 381.87 27.87 371.01 26.67 359.93 C 25.09 343.76 34.25 326.84 49.30 320.25 C 52.46 318.77 55.84 317.88 59.23 317.14 M 62.24 338.18 C 53.86 340.06 47.22 348.30 47.88 356.99 C 47.96 366.77 57.22 375.32 66.99 374.57 C 77.28 374.55 86.11 364.29 84.52 354.10 C 83.74 343.61 72.35 335.75 62.24 338.18 Z" />
</g>
<g id="#ffffffff">
<path fill="#ffffff" opacity="1.00" d=" M 776.38 409.55 C 779.09 407.09 783.18 412.04 779.74 413.86 C 777.03 416.05 773.20 411.39 776.38 409.55 Z" />
<path fill="#ffffff" opacity="1.00" d=" M 575.69 410.00 C 577.12 410.00 578.57 410.00 580.02 410.00 C 580.00 412.36 579.98 414.73 579.94 417.10 C 582.37 416.17 585.46 415.37 587.51 417.55 C 590.39 421.34 590.00 428.18 585.44 430.49 C 583.59 431.49 581.65 430.39 579.86 429.89 C 578.59 430.66 577.15 431.04 575.71 431.33 C 575.65 424.22 575.69 417.11 575.69 410.00 M 579.97 427.31 C 580.75 427.36 582.30 427.46 583.08 427.51 C 585.69 426.01 585.98 420.42 582.94 419.30 C 578.53 419.06 580.38 424.56 579.97 427.31 Z" />
<path fill="#ffffff" opacity="1.00" d=" M 596.68 410.00 C 599.55 410.00 602.43 410.00 605.31 410.00 C 605.46 415.58 604.99 421.19 605.53 426.76 C 606.78 427.85 608.51 427.44 610.03 427.57 C 610.24 428.31 610.65 429.77 610.86 430.50 C 607.71 430.85 603.24 431.83 601.57 428.23 C 600.38 423.37 601.23 418.27 601.00 413.32 C 599.56 413.31 598.13 413.30 596.70 413.30 C 596.70 412.47 596.68 410.83 596.68 410.00 Z" />
<path fill="#ffffff" opacity="1.00" d=" M 726.28 410.14 C 729.18 410.01 732.08 409.97 735.00 409.98 C 735.09 415.05 734.82 420.12 735.06 425.18 C 734.97 429.00 740.93 426.13 740.91 430.35 C 737.63 430.93 732.75 431.91 731.23 427.94 C 730.12 423.15 730.87 418.17 730.70 413.31 C 729.32 413.31 727.95 413.31 726.60 413.32 C 726.49 412.26 726.38 411.20 726.28 410.14 Z" />
<path fill="#ffffff" opacity="1.00" d=" M 511.00 411.99 C 514.73 412.09 518.65 411.54 522.22 412.85 C 526.36 414.65 526.22 421.30 522.32 423.26 C 520.12 424.24 517.65 424.22 515.31 424.50 C 515.31 426.66 515.30 428.83 515.31 431.00 C 513.87 430.99 512.43 430.99 511.00 431.00 C 511.00 424.66 511.00 418.32 511.00 411.99 M 515.34 415.09 C 515.32 417.13 515.31 419.17 515.31 421.21 C 517.43 420.89 521.15 421.11 521.03 418.02 C 521.09 415.07 517.35 415.46 515.34 415.09 Z" />
<path fill="#ffffff" opacity="1.00" d=" M 684.65 420.36 C 682.25 417.39 684.71 413.11 688.07 412.32 C 691.17 411.19 694.24 412.73 696.88 414.28 C 696.21 415.12 695.55 415.98 694.91 416.83 C 692.92 416.35 690.92 415.93 688.92 415.54 C 688.63 416.15 688.06 417.36 687.77 417.96 C 690.68 419.39 694.15 420.11 696.47 422.50 C 698.64 425.51 696.30 429.82 692.94 430.63 C 689.38 431.79 685.72 430.41 682.80 428.36 C 683.61 427.43 684.45 426.51 685.28 425.60 C 687.90 426.85 691.84 428.61 693.63 425.17 C 690.66 423.54 687.10 422.78 684.65 420.36 Z" />
<path fill="#ffffff" opacity="1.00" d=" M 534.01 415.79 C 536.25 415.69 538.15 416.16 537.94 418.88 C 540.20 416.37 543.42 415.65 546.66 416.25 C 546.45 417.12 546.02 418.87 545.81 419.74 C 543.18 419.76 539.83 419.72 538.65 422.61 C 537.98 425.34 538.36 428.20 538.31 431.00 C 536.86 430.99 535.43 430.99 534.00 431.00 C 534.00 425.93 533.99 420.86 534.01 415.79 Z" />
<path fill="#ffffff" opacity="1.00" d=" M 558.32 416.48 C 562.75 414.69 568.14 418.09 568.02 422.96 C 568.80 428.18 563.21 432.53 558.33 430.53 C 552.18 428.57 552.17 418.45 558.32 416.48 M 559.10 419.86 C 556.94 422.37 557.69 428.78 562.07 427.52 C 565.35 425.34 563.82 417.25 559.10 419.86 Z" />
<path fill="#ffffff" opacity="1.00" d=" M 619.20 420.19 C 621.14 415.82 627.71 414.52 631.06 418.00 C 632.84 419.83 632.61 422.55 632.91 424.89 C 629.25 424.99 625.59 424.97 621.94 425.16 C 624.11 429.73 629.87 425.21 632.21 429.28 C 628.83 430.78 624.64 431.92 621.27 429.78 C 618.07 427.83 617.81 423.33 619.20 420.19 M 622.45 421.88 C 624.80 421.97 627.17 421.97 629.54 421.88 C 628.49 420.95 627.73 418.98 626.02 419.31 C 624.29 419.15 623.48 420.85 622.45 421.88 Z" />
<path fill="#ffffff" opacity="1.00" d=" M 640.00 416.00 C 640.83 416.00 642.47 416.00 643.30 416.00 C 643.26 416.43 643.18 417.31 643.14 417.75 C 644.40 417.02 645.65 416.28 646.93 415.57 C 647.32 416.06 648.09 417.02 648.47 417.51 C 650.18 416.39 653.13 414.92 654.34 417.50 C 655.66 421.84 654.78 426.52 654.99 431.00 C 653.65 430.99 652.32 430.99 651.00 431.00 C 651.01 427.06 651.07 423.12 650.81 419.19 C 647.44 422.09 649.53 427.12 649.01 431.00 C 648.18 431.00 646.52 431.00 645.69 431.00 C 645.69 427.09 645.78 423.17 645.47 419.27 C 642.71 422.49 644.42 427.14 644.01 431.00 C 642.67 430.99 641.33 430.99 640.00 431.00 C 639.99 426.00 640.00 421.00 640.00 416.00 Z" />
<path fill="#ffffff" opacity="1.00" d=" M 709.33 416.48 C 714.20 414.47 719.80 418.81 719.02 424.04 C 719.17 429.20 713.15 432.57 708.68 430.26 C 703.10 427.79 703.45 418.36 709.33 416.48 M 710.16 419.90 C 708.39 422.03 708.35 426.20 711.03 427.62 C 716.72 428.81 715.60 416.57 710.16 419.90 Z" />
<path fill="#ffffff" opacity="1.00" d=" M 746.96 415.96 C 748.47 416.01 749.99 416.07 751.52 416.14 C 752.64 419.91 753.77 423.67 754.89 427.45 C 756.21 423.68 757.38 419.87 758.51 416.05 C 759.91 416.02 761.33 416.00 762.76 415.98 C 761.03 420.97 759.19 425.92 757.55 430.94 C 755.82 430.94 754.09 430.94 752.37 430.94 C 750.62 425.92 748.77 420.95 746.96 415.96 Z" />
<path fill="#ffffff" opacity="1.00" d=" M 770.21 416.02 C 773.57 416.00 776.94 415.99 780.31 416.00 C 780.31 421.00 780.32 426.00 780.31 431.00 C 778.86 430.99 777.43 430.99 776.00 431.00 C 776.00 427.10 775.99 423.21 775.99 419.32 C 774.06 419.31 772.14 419.30 770.23 419.30 C 770.22 418.48 770.22 416.84 770.21 416.02 Z" />
<path fill="#ffffff" opacity="1.00" d=" M 791.71 415.72 C 793.29 415.98 795.08 416.05 795.97 417.64 C 798.43 416.18 802.21 414.85 804.25 417.67 C 806.09 421.83 805.10 426.58 805.30 431.00 C 803.85 430.99 802.42 430.99 800.99 431.00 C 800.85 427.49 801.52 423.81 800.49 420.41 C 799.23 418.88 797.38 420.46 795.93 420.76 C 796.00 424.17 796.01 427.59 796.00 431.00 C 794.55 430.99 793.12 430.99 791.69 431.00 C 791.68 425.90 791.66 420.81 791.71 415.72 Z" />
<path fill="#ffffff" opacity="1.00" d=" M 815.08 417.08 C 818.82 415.17 823.27 416.23 827.32 416.01 C 827.32 416.83 827.31 418.47 827.30 419.29 C 826.71 419.29 825.52 419.29 824.93 419.29 C 824.73 421.32 825.28 423.93 823.37 425.32 C 821.09 426.68 818.28 426.39 815.78 426.97 C 819.37 429.01 824.15 426.83 827.42 429.55 C 829.10 432.14 826.97 435.43 824.30 436.21 C 820.14 437.53 814.01 437.92 811.98 433.12 C 812.47 432.47 813.47 431.17 813.96 430.52 C 813.60 429.38 813.24 428.24 812.90 427.11 C 813.30 426.72 814.10 425.95 814.50 425.56 C 812.85 423.00 812.15 419.02 815.08 417.08 M 818.13 419.05 C 815.97 420.36 817.00 425.00 819.80 423.90 C 822.56 422.89 821.17 417.76 818.13 419.05 M 815.97 432.05 C 816.81 435.81 822.24 433.96 824.77 432.87 C 822.56 430.76 818.32 430.49 815.97 432.05 Z" />
</g>
<g id="#fc9675ff">
<path fill="#fc9675" opacity="1.00" d=" M 818.13 419.05 C 821.17 417.76 822.56 422.89 819.80 423.90 C 817.00 425.00 815.97 420.36 818.13 419.05 Z" />
</g>
<g id="#000000ff">
<path fill="#000000" opacity="1.00" d=" M 154.28 432.19 C 163.09 428.03 173.41 426.37 182.86 429.28 C 196.54 432.58 207.54 443.98 211.03 457.52 C 213.13 465.35 212.63 473.79 209.83 481.39 C 205.59 493.75 194.50 503.11 181.92 506.17 C 173.11 508.48 163.65 507.18 155.40 503.50 C 144.71 498.57 136.48 488.53 133.99 476.99 C 129.27 459.77 138.26 440.05 154.28 432.19 M 168.36 449.57 C 160.16 451.49 153.66 459.48 154.11 468.00 C 154.03 477.45 162.53 485.95 171.96 485.95 C 182.56 486.66 192.21 476.43 190.82 465.89 C 190.26 455.17 178.66 446.99 168.36 449.57 Z" />
</g>
</svg>
